<svg width="128" height="128" viewBox="0 0 128 128" xmlns="http://www.w3.org/2000/svg">
  <!-- VSCode背景 -->
  <rect width="128" height="128" fill="#007ACC" rx="8"/>
  
  <!-- VSCode窗口样式 -->
  <rect x="8" y="24" width="112" height="96" fill="#1E1E1E" rx="4"/>
  
  <!-- 顶部标题栏 -->
  <rect x="8" y="24" width="112" height="20" fill="#2D2D30" rx="4 4 0 0"/>
  
  <!-- 关闭按钮 -->
  <circle cx="100" cy="34" r="4" fill="#FF5F57"/>
  <circle cx="88" cy="34" r="4" fill="#FFBD2E"/>
  <circle cx="76" cy="34" r="4" fill="#28CA42"/>
  
  <!-- 侧边栏 -->
  <rect x="12" y="48" width="24" height="68" fill="#252526"/>
  
  <!-- 编辑器区域 -->
  <rect x="40" y="48" width="76" height="68" fill="#1E1E1E"/>
  
  <!-- Twitter鸟图标 (简化版) -->
  <g transform="translate(48, 60) scale(0.8)">
    <path d="M24 4.557c-.883.392-1.832.656-2.828.775 1.017-.609 1.798-1.574 2.165-2.724-.951.564-2.005.974-3.127 1.195-.897-.957-2.178-1.555-3.594-1.555-3.179 0-5.515 2.966-4.797 6.045-4.091-.205-7.719-2.165-10.148-5.144-1.29 2.213-.669 5.108 1.523 6.574-.806-.026-1.566-.247-2.229-.616-.054 2.281 1.581 4.415 3.949 4.89-.693.188-1.452.232-2.224.084.626 1.956 2.444 3.379 4.6 3.419-2.07 1.623-4.678 2.348-7.29 2.04 2.179 1.397 4.768 2.212 7.548 2.212 9.142 0 14.307-7.721 13.995-14.646.962-.695 1.797-1.562 2.457-2.549z" fill="#1DA1F2"/>
  </g>
  
  <!-- 代码符号 -->
  <text x="60" y="100" font-family="Consolas, monospace" font-size="12" fill="#569CD6">&lt;/&gt;</text>
  
  <!-- 底部状态栏 -->
  <rect x="12" y="108" width="104" height="8" fill="#007ACC"/>
</svg> 